<svg xmlns="http://www.w3.org/2000/svg" width="197" height="197" viewBox="0 0 197 197">
  <defs>
    <style>
      .cls-1 {
        fill: #fff;
      }

      .cls-2 {
        fill: #0ea6cb;
      }

      .cls-3 {
        fill: #edeceb;
      }

      .cls-4 {
        fill: #c4c0bf;
      }

      .cls-5 {
        fill: #dfdad7;
      }

      .cls-6 {
        fill: #f86e51;
      }

      .cls-7 {
        fill: #e55a42;
      }
    </style>
  </defs>
  <g id="Group_53" data-name="Group 53" transform="translate(-629 -740)">
    <circle id="Ellipse_5" data-name="Ellipse 5" class="cls-1" cx="98.5" cy="98.5" r="98.5" transform="translate(629 740)"/>
    <g id="Group_4" data-name="Group 4" transform="translate(-466)">
      <circle id="Ellipse_6" data-name="Ellipse 6" class="cls-2" cx="82.5" cy="82.5" r="82.5" transform="translate(1111 756)"/>
      <rect id="Rectangle_13" data-name="Rectangle 13" class="cls-1" width="49" height="71" transform="translate(1169 800)"/>
      <rect id="Rectangle_14" data-name="Rectangle 14" class="cls-3" width="25" height="71" transform="translate(1193 800)"/>
      <rect id="Rectangle_15" data-name="Rectangle 15" class="cls-4" width="11" height="12" transform="translate(1201 816)"/>
      <rect id="Rectangle_16" data-name="Rectangle 16" class="cls-4" width="11" height="12" transform="translate(1175 816)"/>
      <rect id="Rectangle_17" data-name="Rectangle 17" class="cls-4" width="11" height="12" transform="translate(1201 833)"/>
      <rect id="Rectangle_18" data-name="Rectangle 18" class="cls-4" width="11" height="12" transform="translate(1175 833)"/>
      <rect id="Rectangle_19" data-name="Rectangle 19" class="cls-4" width="12" height="19" transform="translate(1189 852)"/>
      <rect id="Rectangle_20" data-name="Rectangle 20" class="cls-5" width="22" height="19" rx="7" transform="translate(1182 791)"/>
      <path id="Rectangle_21" data-name="Rectangle 21" class="cls-4" d="M0,0H4a7,7,0,0,1,7,7v5a7,7,0,0,1-7,7H0a0,0,0,0,1,0,0V0A0,0,0,0,1,0,0Z" transform="translate(1193 791)"/>
      <rect id="Rectangle_22" data-name="Rectangle 22" class="cls-6" width="6" height="14" transform="translate(1190 794)"/>
      <rect id="Rectangle_23" data-name="Rectangle 23" class="cls-6" width="5.029" height="14.25" transform="translate(1200.139 798.331) rotate(90)"/>
      <rect id="Rectangle_24" data-name="Rectangle 24" class="cls-7" width="3" height="14" transform="translate(1193 794)"/>
      <rect id="Rectangle_25" data-name="Rectangle 25" class="cls-7" width="5.029" height="6.706" transform="translate(1200.139 798.331) rotate(90)"/>
    </g>
  </g>
</svg>
